<svg xmlns="http://www.w3.org/2000/svg" version="1.1" xmlns:xlink="http://www.w3.org/1999/xlink" xmlns:svgjs="http://svgjs.dev/svgjs" width="1500" height="1500" viewBox="0 0 1500 1500"><rect width="1500" height="1500" fill="#000000"></rect><g transform="matrix(0.6666666666666666,0,0,0.6666666666666666,249.39393939393938,438.5856950067477)"><svg viewBox="0 0 396 247" data-background-color="#000000" preserveAspectRatio="xMidYMid meet" height="935" width="1500" xmlns="http://www.w3.org/2000/svg" xmlns:xlink="http://www.w3.org/1999/xlink"><g id="tight-bounds" transform="matrix(1,0,0,1,0.2400000000000091,-0.09999999999999432)"><svg viewBox="0 0 395.52 247.2" height="247.2" width="395.52"><rect width="395.52" height="247.2" fill="#ffffff" mask="url(#83274839-8a0d-4895-8d60-05334e5368a2)" data-fill-palette-color="tertiary"></rect><g><svg></svg></g><g><svg viewBox="0 0 395.52 247.2" height="247.2" width="395.52"><g transform="matrix(1,0,0,1,148.00170980392156,47.215199999999996)"><svg viewBox="0 0 99.51658039215685 152.7696" height="152.7696" width="99.51658039215685"><g><svg viewBox="0 0 99.51658039215685 152.7696" height="152.7696" width="99.51658039215685"><g><svg viewBox="0 0 99.51658039215685 152.7696" height="152.7696" width="99.51658039215685"><g><svg viewBox="0 0 99.51658039215685 152.7696" height="152.7696" width="99.51658039215685"><g id="textblocktransform"><svg viewBox="0 0 99.51658039215685 152.7696" height="152.7696" width="99.51658039215685" id="textblock"><g><svg viewBox="0 0 99.51658039215685 152.7696" height="152.7696" width="99.51658039215685"><g transform="matrix(1,0,0,1,0,0)"><svg width="99.51658039215685" viewBox="0.5499999999999999 -21.8 14.95 22.95" height="152.7696" data-palette-color="url(#d75f1366-2092-4221-b342-47ed7c761055)"></svg></g></svg></g></svg></g></svg></g></svg></g></svg></g></svg></g><path d="M330.303 41.215L330.303 0 83.103 0 83.103 247.2 330.303 247.2 330.303 205.985 316.526 205.985 316.526 233.423 96.88 233.423 96.88 13.777 316.526 13.777 316.526 41.215Z" fill="#ffffff" stroke="transparent" data-fill-palette-color="tertiary"></path></svg></g><defs></defs><mask id="51d7b2af-bde0-45f4-bdaa-3cf4aea0a09b"><g id="SvgjsG1085"><svg viewBox="0 0 395.52 247.2" height="247.2" width="395.52"><g><svg></svg></g><g><svg viewBox="0 0 395.52 247.2" height="247.2" width="395.52"><g transform="matrix(1,0,0,1,148.00170980392156,47.215199999999996)"><svg viewBox="0 0 99.51658039215685 152.7696" height="152.7696" width="99.51658039215685"><g><svg viewBox="0 0 99.51658039215685 152.7696" height="152.7696" width="99.51658039215685"><g><svg viewBox="0 0 99.51658039215685 152.7696" height="152.7696" width="99.51658039215685"><g><svg viewBox="0 0 99.51658039215685 152.7696" height="152.7696" width="99.51658039215685"><g id="SvgjsG1084"><svg viewBox="0 0 99.51658039215685 152.7696" height="152.7696" width="99.51658039215685" id="SvgjsSvg1083"><g><svg viewBox="0 0 99.51658039215685 152.7696" height="152.7696" width="99.51658039215685"><g transform="matrix(1,0,0,1,0,0)"><svg width="99.51658039215685" viewBox="0.5499999999999999 -21.8 14.95 22.95" height="152.7696" data-palette-color="url(#d75f1366-2092-4221-b342-47ed7c761055)"><path d="M9.35-13.95L10-14Q13.85-14.35 14.68-14.35 15.5-14.35 15.5-14.1L15.5-14.1Q15.5-13.8 14.33-13.48 13.15-13.15 8.6-12.65L8.6-12.65Q8.35-12.2 8-11.6L8-11.6Q7.25-10.4 7.2-10.15L7.2-10.15Q4.35-4.45 4.2-2.9L4.2-2.9Q4.15-2.45 4.15-1.75 4.15-1.05 4.55-0.6L4.55-0.6Q5.25 0.2 6.55-0.5 7.85-1.2 10.18-3.3 12.5-5.4 13.95-7.4L13.95-7.4Q14.15-7.65 14.45-7.5L14.45-7.5Q15.2-7.15 11.85-3.55L11.85-3.55Q8.65-0.1 6.5 0.7L6.5 0.7Q5.25 1.15 4.4 1.15L4.4 1.15Q2.4 1.15 1.75-0.75L1.75-0.75Q1.65-1.1 1.65-1.6L1.65-1.6Q1.65-3.35 3.25-6.9L3.25-6.9Q3-6.35 1.3-4.4L1.3-4.4Q0.85-3.9 0.6-4.4L0.6-4.4Q0.55-4.5 0.55-4.67 0.55-4.85 0.75-5.1L0.75-5.1Q3.2-8.15 4.6-10.25L4.6-10.25Q4.6-10.3 5.7-12.35L5.7-12.35Q5.2-12.25 4.67-12.25 4.15-12.25 3.9-12.58 3.65-12.9 3.85-13.35L3.85-13.35Q4.2-14.15 6.5-14.25L6.5-14.25Q6.55-14.35 6.7-14.35L6.7-14.35 9.2-19Q9.4-19.4 9.65-19.83 9.9-20.25 10.03-20.48 10.15-20.7 10.3-20.95 10.45-21.2 10.55-21.3 10.65-21.4 10.75-21.5L10.75-21.5Q10.95-21.8 11.93-21.8 12.9-21.8 13.25-21.25L13.25-21.25Q13.4-21.05 13.4-20.58 13.4-20.1 13.05-19.53 12.7-18.95 12.3-18.7 11.9-18.45 11.75-18.15L11.75-18.15 9.35-13.95Z" opacity="1" transform="matrix(1,0,0,1,0,0)" fill="white" class="wordmark-text-0" id="SvgjsPath1082"></path></svg></g></svg></g></svg></g></svg></g></svg></g></svg></g></svg></g><path d="M330.303 41.215L330.303 0 83.103 0 83.103 247.2 330.303 247.2 330.303 205.985 316.526 205.985 316.526 233.423 96.88 233.423 96.88 13.777 316.526 13.777 316.526 41.215Z" fill="black" stroke="transparent"></path></svg></g><defs><mask></mask></defs></svg><rect width="395.52" height="247.2" fill="black" stroke="none" visibility="hidden"></rect></g></mask><linearGradient x1="0" x2="1" y1="0.5" y2="0.5" id="d75f1366-2092-4221-b342-47ed7c761055"><stop stop-color="#f00b51" offset="0"></stop><stop stop-color="#730062" offset="1"></stop></linearGradient><rect width="395.52" height="247.2" fill="#ffffff" mask="url(#51d7b2af-bde0-45f4-bdaa-3cf4aea0a09b)" data-fill-palette-color="primary"></rect><mask id="83274839-8a0d-4895-8d60-05334e5368a2"><g id="SvgjsG1108"><svg viewBox="0 0 395.52 247.2" height="247.2" width="395.52"><g><svg></svg></g><g><svg viewBox="0 0 395.52 247.2" height="247.2" width="395.52"><g transform="matrix(1,0,0,1,148.00170980392156,47.215199999999996)"><svg viewBox="0 0 99.51658039215685 152.7696" height="152.7696" width="99.51658039215685"><g><svg viewBox="0 0 99.51658039215685 152.7696" height="152.7696" width="99.51658039215685"><g><svg viewBox="0 0 99.51658039215685 152.7696" height="152.7696" width="99.51658039215685"><g><svg viewBox="0 0 99.51658039215685 152.7696" height="152.7696" width="99.51658039215685"><g id="SvgjsG1107"><svg viewBox="0 0 99.51658039215685 152.7696" height="152.7696" width="99.51658039215685" id="SvgjsSvg1106"><g><svg viewBox="0 0 99.51658039215685 152.7696" height="152.7696" width="99.51658039215685"><g transform="matrix(1,0,0,1,0,0)"><svg width="99.51658039215685" viewBox="0.5499999999999999 -21.8 14.95 22.95" height="152.7696" data-palette-color="url(#d75f1366-2092-4221-b342-47ed7c761055)"></svg></g></svg></g></svg></g></svg></g></svg></g></svg></g></svg></g><path d="M330.303 41.215L330.303 0 83.103 0 83.103 247.2 330.303 247.2 330.303 205.985 316.526 205.985 316.526 233.423 96.88 233.423 96.88 13.777 316.526 13.777 316.526 41.215Z" fill="white" stroke="transparent"></path></svg></g><defs><mask></mask></defs><mask><g id="SvgjsG1105"><svg viewBox="0 0 395.52 247.2" height="247.2" width="395.52"><g><svg></svg></g><g><svg viewBox="0 0 395.52 247.2" height="247.2" width="395.52"><g transform="matrix(1,0,0,1,148.00170980392156,47.215199999999996)"><svg viewBox="0 0 99.51658039215685 152.7696" height="152.7696" width="99.51658039215685"><g><svg viewBox="0 0 99.51658039215685 152.7696" height="152.7696" width="99.51658039215685"><g><svg viewBox="0 0 99.51658039215685 152.7696" height="152.7696" width="99.51658039215685"><g><svg viewBox="0 0 99.51658039215685 152.7696" height="152.7696" width="99.51658039215685"><g id="SvgjsG1104"><svg viewBox="0 0 99.51658039215685 152.7696" height="152.7696" width="99.51658039215685" id="SvgjsSvg1103"><g><svg viewBox="0 0 99.51658039215685 152.7696" height="152.7696" width="99.51658039215685"><g transform="matrix(1,0,0,1,0,0)"><svg width="99.51658039215685" viewBox="0.5499999999999999 -21.8 14.95 22.95" height="152.7696" data-palette-color="url(#d75f1366-2092-4221-b342-47ed7c761055)"><path d="M9.35-13.95L10-14Q13.85-14.35 14.68-14.35 15.5-14.35 15.5-14.1L15.5-14.1Q15.5-13.8 14.33-13.48 13.15-13.15 8.6-12.65L8.6-12.65Q8.35-12.2 8-11.6L8-11.6Q7.25-10.4 7.2-10.15L7.2-10.15Q4.35-4.45 4.2-2.9L4.2-2.9Q4.15-2.45 4.15-1.75 4.15-1.05 4.55-0.6L4.55-0.6Q5.25 0.2 6.55-0.5 7.85-1.2 10.18-3.3 12.5-5.4 13.95-7.4L13.95-7.4Q14.15-7.65 14.45-7.5L14.45-7.5Q15.2-7.15 11.85-3.55L11.85-3.55Q8.65-0.1 6.5 0.7L6.5 0.7Q5.25 1.15 4.4 1.15L4.4 1.15Q2.4 1.15 1.75-0.75L1.75-0.75Q1.65-1.1 1.65-1.6L1.65-1.6Q1.65-3.35 3.25-6.9L3.25-6.9Q3-6.35 1.3-4.4L1.3-4.4Q0.85-3.9 0.6-4.4L0.6-4.4Q0.55-4.5 0.55-4.67 0.55-4.85 0.75-5.1L0.75-5.1Q3.2-8.15 4.6-10.25L4.6-10.25Q4.6-10.3 5.7-12.35L5.7-12.35Q5.2-12.25 4.67-12.25 4.15-12.25 3.9-12.58 3.65-12.9 3.85-13.35L3.85-13.35Q4.2-14.15 6.5-14.25L6.5-14.25Q6.55-14.35 6.7-14.35L6.7-14.35 9.2-19Q9.4-19.4 9.65-19.83 9.9-20.25 10.03-20.48 10.15-20.7 10.3-20.95 10.45-21.2 10.55-21.3 10.65-21.4 10.75-21.5L10.75-21.5Q10.95-21.8 11.93-21.8 12.9-21.8 13.25-21.25L13.25-21.25Q13.4-21.05 13.4-20.58 13.4-20.1 13.05-19.53 12.7-18.95 12.3-18.7 11.9-18.45 11.75-18.15L11.75-18.15 9.35-13.95Z" opacity="1" transform="matrix(1,0,0,1,0,0)" fill="black" class="wordmark-text-0" id="SvgjsPath1102"></path></svg></g></svg></g></svg></g></svg></g></svg></g></svg></g></svg></g><path d="M330.303 41.215L330.303 0 83.103 0 83.103 247.2 330.303 247.2 330.303 205.985 316.526 205.985 316.526 233.423 96.88 233.423 96.88 13.777 316.526 13.777 316.526 41.215Z" fill="black" stroke="transparent"></path></svg></g><defs><mask></mask></defs></svg><rect width="395.52" height="247.2" fill="black" stroke="none" visibility="hidden"></rect></g></mask></svg><rect width="395.52" height="247.2" fill="black" stroke="none" visibility="hidden"></rect></g></mask><linearGradient x1="0" x2="1" y1="0.5" y2="0.5" id="20c9593e-ba4d-4eb2-b920-95a6173db24f"><stop stop-color="#f00b51" offset="0"></stop><stop stop-color="#730062" offset="1"></stop></linearGradient></svg><rect width="395.52" height="247.2" fill="none" stroke="none" visibility="hidden"></rect></g></svg></g></svg>